<svg width="1200" height="720" viewBox="0 0 1200 720" fill="none" xmlns="http://www.w3.org/2000/svg">
  <rect width="1200" height="720" rx="36" fill="#F6F8F5"/>
  <rect x="66" y="66" width="1068" height="588" rx="34" fill="#FFFFFF"/>
  <rect x="122" y="122" width="420" height="476" rx="30" fill="#ECFDF5"/>
  <rect x="586" y="122" width="492" height="164" rx="30" fill="#0F172A"/>
  <rect x="622" y="158" width="210" height="26" rx="13" fill="#FFFFFF"/>
  <rect x="622" y="210" width="162" height="18" rx="9" fill="#A7F3D0"/>
  <rect x="162" y="172" width="340" height="58" rx="18" fill="#FFFFFF"/>
  <rect x="162" y="256" width="340" height="58" rx="18" fill="#FFFFFF"/>
  <rect x="162" y="340" width="340" height="58" rx="18" fill="#FFFFFF"/>
  <rect x="162" y="424" width="340" height="58" rx="18" fill="#FFFFFF"/>
  <rect x="162" y="508" width="240" height="58" rx="18" fill="#10B981"/>
  <rect x="586" y="330" width="492" height="268" rx="30" fill="#F8FAFC"/>
  <path d="M650 394H1016" stroke="#CBD5E1" stroke-width="8" stroke-linecap="round"/>
  <path d="M650 454H1016" stroke="#CBD5E1" stroke-width="8" stroke-linecap="round"/>
  <path d="M650 514H1016" stroke="#CBD5E1" stroke-width="8" stroke-linecap="round"/>
  <rect x="692" y="370" width="78" height="48" rx="16" fill="#0F9F7F"/>
  <rect x="798" y="430" width="78" height="48" rx="16" fill="#A7F3D0"/>
  <rect x="904" y="490" width="78" height="48" rx="16" fill="#0F172A"/>
</svg>
