<svg width="1200" height="720" viewBox="0 0 1200 720" fill="none" xmlns="http://www.w3.org/2000/svg">
  <rect width="1200" height="720" rx="36" fill="#F8FAFC"/>
  <rect x="70" y="70" width="1060" height="580" rx="34" fill="#0B1220"/>
  <rect x="118" y="118" width="964" height="484" rx="30" fill="#111827"/>
  <rect x="164" y="166" width="304" height="388" rx="28" fill="#1E293B"/>
  <circle cx="316" cy="312" r="96" fill="#0F9F7F"/>
  <circle cx="316" cy="312" r="38" fill="#E2FDF5"/>
  <rect x="530" y="188" width="458" height="40" rx="20" fill="#ECFEFF"/>
  <rect x="530" y="262" width="422" height="20" rx="10" fill="#475569"/>
  <rect x="530" y="320" width="386" height="20" rx="10" fill="#64748B"/>
  <rect x="530" y="396" width="220" height="58" rx="29" fill="#10B981"/>
  <rect x="530" y="492" width="458" height="18" rx="9" fill="#334155"/>
  <rect x="530" y="530" width="388" height="18" rx="9" fill="#334155"/>
  <rect x="834" y="396" width="154" height="58" rx="29" fill="#1E293B" stroke="#34D399" stroke-width="4"/>
</svg>
