<svg width="1200" height="720" viewBox="0 0 1200 720" fill="none" xmlns="http://www.w3.org/2000/svg">
  <rect width="1200" height="720" rx="36" fill="#F7FCF9"/>
  <rect x="48" y="48" width="1104" height="624" rx="30" fill="#0F172A"/>
  <rect x="96" y="108" width="1008" height="504" rx="26" fill="#F8FAFC"/>
  <rect x="96" y="108" width="1008" height="88" rx="26" fill="#DCFCE7"/>
  <circle cx="142" cy="152" r="12" fill="#0F9F7F"/>
  <circle cx="182" cy="152" r="12" fill="#34D399"/>
  <circle cx="222" cy="152" r="12" fill="#A7F3D0"/>
  <rect x="152" y="262" width="290" height="220" rx="28" fill="#ECFDF5"/>
  <rect x="500" y="262" width="448" height="36" rx="18" fill="#0F172A"/>
  <rect x="500" y="328" width="378" height="24" rx="12" fill="#64748B"/>
  <rect x="500" y="374" width="420" height="24" rx="12" fill="#94A3B8"/>
  <rect x="500" y="432" width="168" height="52" rx="26" fill="#0F9F7F"/>
  <rect x="188" y="300" width="220" height="24" rx="12" fill="#10B981"/>
  <rect x="188" y="344" width="160" height="20" rx="10" fill="#99F6E4"/>
  <rect x="188" y="388" width="200" height="20" rx="10" fill="#A7F3D0"/>
  <rect x="188" y="438" width="144" height="24" rx="12" fill="#0F172A"/>
</svg>
