<svg width="1200" height="720" viewBox="0 0 1200 720" fill="none" xmlns="http://www.w3.org/2000/svg">
  <rect width="1200" height="720" rx="36" fill="#F0FDF4"/>
  <rect x="72" y="72" width="1056" height="576" rx="34" fill="#FFFFFF"/>
  <rect x="128" y="126" width="340" height="468" rx="28" fill="#ECFDF5"/>
  <rect x="520" y="126" width="552" height="96" rx="26" fill="#0F172A"/>
  <rect x="558" y="160" width="180" height="28" rx="14" fill="#FFFFFF"/>
  <rect x="160" y="182" width="180" height="24" rx="12" fill="#0F9F7F"/>
  <rect x="164" y="250" width="268" height="78" rx="22" fill="#FFFFFF"/>
  <rect x="164" y="352" width="268" height="78" rx="22" fill="#FFFFFF"/>
  <rect x="164" y="454" width="268" height="78" rx="22" fill="#FFFFFF"/>
  <circle cx="210" cy="289" r="18" fill="#10B981"/>
  <circle cx="210" cy="391" r="18" fill="#A7F3D0"/>
  <circle cx="210" cy="493" r="18" fill="#0F172A"/>
  <rect x="606" y="280" width="392" height="24" rx="12" fill="#0F172A"/>
  <rect x="606" y="332" width="292" height="20" rx="10" fill="#64748B"/>
  <rect x="606" y="392" width="360" height="24" rx="12" fill="#0F172A"/>
  <rect x="606" y="444" width="244" height="20" rx="10" fill="#64748B"/>
  <rect x="606" y="504" width="316" height="24" rx="12" fill="#0F172A"/>
  <rect x="606" y="556" width="198" height="20" rx="10" fill="#64748B"/>
</svg>
